<?xml version="1.0" encoding="UTF-8"?><svg id="Layer_1" xmlns="http://www.w3.org/2000/svg" viewBox="0 0 163.86 54.89"><path d="m54.46,17.61V7.04h4.95c2.3,0,3.55,1.55,3.55,3.41s-1.27,3.41-3.55,3.41h-2.7v3.76h-2.25Zm6.2-7.17c0-.89-.67-1.43-1.55-1.43h-2.39v2.85h2.39c.89,0,1.55-.56,1.55-1.43Z"/><path d="m66.79,17.61v-8.59h-3.09v-1.98h8.44v1.98h-3.08v8.59h-2.27Z"/><path d="m71.73,16.5c0-.7.59-1.28,1.28-1.28s1.28.59,1.28,1.28-.59,1.28-1.28,1.28-1.28-.59-1.28-1.28Z"/><path d="m75.38,16.12l1.22-1.71c.75.78,1.9,1.43,3.36,1.43,1.24,0,1.84-.57,1.84-1.17,0-1.87-6.09-.59-6.09-4.57,0-1.76,1.52-3.22,4.01-3.22,1.68,0,3.08.51,4.12,1.47l-1.25,1.65c-.86-.79-2-1.16-3.08-1.16-.97,0-1.51.43-1.51,1.06,0,1.68,6.07.55,6.07,4.5,0,1.93-1.38,3.39-4.23,3.39-2.03,0-3.49-.68-4.47-1.68Z"/><path d="m85.6,17.61V7.04h2.25v10.58h-2.25Z"/><path d="m97.24,17.61l-5.04-6.9v6.9h-2.25V7.04h2.31l4.9,6.64v-6.64h2.25v10.58h-2.17Z"/><path d="m101.5,17.61V7.04h7.48v1.98h-5.23v2.24h5.12v1.98h-5.12v2.39h5.23v1.98h-7.48Z"/><path d="m116.72,17.61l-2.08-3.76h-1.65v3.76h-2.25V7.04h4.95c2.2,0,3.55,1.44,3.55,3.41s-1.17,2.87-2.31,3.14l2.38,4.03h-2.58Zm.22-7.17c0-.89-.68-1.43-1.59-1.43h-2.36v2.85h2.36c.9,0,1.59-.54,1.59-1.43Z"/><path d="m120.43,12.33c0-3.35,2.54-5.47,5.63-5.47,2.2,0,3.58,1.11,4.38,2.36l-1.87,1.01c-.48-.75-1.38-1.38-2.51-1.38-1.92,0-3.31,1.47-3.31,3.47s1.39,3.47,3.31,3.47c.94,0,1.82-.41,2.25-.81v-1.27h-2.79v-1.97h5.04v4.06c-1.08,1.2-2.58,2-4.5,2-3.09,0-5.63-2.16-5.63-5.49Z"/><path d="m132.35,17.61V7.04h2.25v10.58h-2.25Z"/><path d="m63.66,32.72v-7.4l-2.98,7.4h-.98l-2.98-7.4v7.4h-2.25v-10.58h3.16l2.57,6.39,2.57-6.39h3.17v10.58h-2.27Z"/><path d="m75.3,32.72l-.65-1.79h-4.54l-.67,1.79h-2.57l4.09-10.58h2.82l4.08,10.58h-2.57Zm-2.92-8.32l-1.65,4.55h3.3l-1.65-4.55Z"/><path d="m86.14,32.72l-5.04-6.9v6.9h-2.25v-10.58h2.31l4.9,6.64v-6.64h2.25v10.58h-2.17Z"/><path d="m90.41,32.72v-10.58h4.17c3.31,0,5.61,2.11,5.61,5.3s-2.3,5.28-5.61,5.28h-4.17Zm7.48-5.28c0-1.87-1.14-3.31-3.31-3.31h-1.92v6.61h1.92c2.09,0,3.31-1.51,3.31-3.3Z"/><path d="m101.79,32.72v-10.58h2.25v10.58h-2.25Z"/><path d="m112.11,32.72l-2.08-3.76h-1.65v3.76h-2.25v-10.58h4.95c2.2,0,3.55,1.44,3.55,3.41s-1.17,2.87-2.31,3.14l2.38,4.03h-2.58Zm.22-7.17c0-.89-.68-1.43-1.59-1.43h-2.36v2.85h2.36c.9,0,1.59-.54,1.59-1.43Z"/><path d="m116.32,32.72v-10.58h2.25v10.58h-2.25Z"/><path d="m120.16,27.44c0-3.25,2.46-5.47,5.63-5.47,2.33,0,3.68,1.27,4.42,2.58l-1.94.95c-.44-.86-1.39-1.54-2.49-1.54-1.92,0-3.31,1.47-3.31,3.47s1.39,3.47,3.31,3.47c1.09,0,2.05-.67,2.49-1.54l1.94.94c-.76,1.32-2.09,2.6-4.42,2.6-3.17,0-5.63-2.22-5.63-5.47Z"/><path d="m131.55,32.72v-10.58h2.25v10.58h-2.25Z"/><path d="m135.9,32.72v-10.58h4.95c2.3,0,3.55,1.55,3.55,3.41s-1.27,3.41-3.55,3.41h-2.7v3.76h-2.25Zm6.2-7.17c0-.89-.67-1.43-1.55-1.43h-2.39v2.85h2.39c.89,0,1.55-.56,1.55-1.43Z"/><path d="m148.23,32.72v-8.59h-3.09v-1.98h8.44v1.98h-3.08v8.59h-2.27Z"/><path d="m161.29,32.72l-.65-1.79h-4.54l-.67,1.79h-2.57l4.09-10.58h2.82l4.08,10.58h-2.57Zm-2.92-8.32l-1.65,4.55h3.3l-1.65-4.55Z"/><path d="m54.46,47.84v-10.58h2.25v10.58h-2.25Z"/><path d="m66.09,47.84l-5.04-6.9v6.9h-2.25v-10.58h2.31l4.9,6.64v-6.64h2.25v10.58h-2.17Z"/><path d="m70.36,47.84v-10.58h4.17c3.31,0,5.61,2.11,5.61,5.3s-2.3,5.28-5.61,5.28h-4.17Zm7.48-5.28c0-1.87-1.14-3.31-3.31-3.31h-1.92v6.61h1.92c2.09,0,3.31-1.51,3.31-3.3Z"/><path d="m81.23,42.56c0-3.19,2.33-5.47,5.52-5.47s5.53,2.28,5.53,5.47-2.33,5.47-5.53,5.47-5.52-2.28-5.52-5.47Zm8.74,0c0-1.98-1.27-3.47-3.22-3.47s-3.2,1.49-3.2,3.47,1.25,3.47,3.2,3.47,3.22-1.51,3.22-3.47Z"/><path d="m101.16,47.84l-5.04-6.9v6.9h-2.25v-10.58h2.31l4.9,6.64v-6.64h2.25v10.58h-2.17Z"/><path d="m105.42,47.84v-10.58h7.48v1.98h-5.23v2.24h5.12v1.98h-5.12v2.39h5.23v1.98h-7.48Z"/><path d="m113.94,46.35l1.22-1.71c.75.78,1.9,1.43,3.36,1.43,1.24,0,1.84-.57,1.84-1.17,0-1.87-6.09-.59-6.09-4.57,0-1.76,1.52-3.22,4.01-3.22,1.68,0,3.08.51,4.12,1.47l-1.25,1.65c-.86-.79-2-1.16-3.08-1.16-.97,0-1.51.43-1.51,1.06,0,1.68,6.07.55,6.07,4.5,0,1.93-1.38,3.39-4.23,3.39-2.03,0-3.49-.68-4.47-1.68Z"/><path d="m124.17,47.84v-10.58h2.25v10.58h-2.25Z"/><path d="m135.8,47.84l-.65-1.79h-4.54l-.67,1.79h-2.57l4.09-10.58h2.82l4.08,10.58h-2.57Zm-2.92-8.32l-1.65,4.55h3.3l-1.65-4.55Z"/><path d="m23.6,16.84c-.66-1.11-1.86-1.86-3.24-1.86-2.09,0-3.78,1.69-3.78,3.78s1.69,3.78,3.78,3.78c1.3,0,2.45-.66,3.13-1.66,7.42.86,13.2,7.29,13.2,15.07,0,8.22-6.69,14.91-14.91,14.91H6.04c-1.11,0-2.01-.9-2.01-2.01s.9-2.01,2.01-2.01h16.25c5.9,0,10.7-4.8,10.7-10.7s-4.8-10.7-10.7-10.7h-3.87c-3.68,0-6.67-2.99-6.67-6.67s2.99-6.67,6.67-6.67h16.25c.15,0,.29-.02.43-.05,3.13-.23,5.61-2.81,5.61-6s-2.71-6.04-6.04-6.04c-.02,0-.03,0-.05,0h-15.68C8.5,0,0,8.5,0,18.94s7.53,18.17,17.12,19.11c.66,1.11,1.86,1.86,3.24,1.86,2.09,0,3.78-1.69,3.78-3.78s-1.69-3.78-3.78-3.78c-1.3,0-2.45.66-3.13,1.66-7.42-.87-13.2-7.29-13.2-15.06,0-8.22,6.69-14.91,14.91-14.91h15.74s.02,0,.03,0c1.1.01,1.99.91,1.99,2.01s-.9,2.01-2.01,2.01c-.02,0-.03,0-.05,0h-16.2c-5.9,0-10.7,4.8-10.7,10.7s4.8,10.7,10.7,10.7h3.87c3.68,0,6.67,2.99,6.67,6.67s-2.99,6.67-6.67,6.67H6.04c-.14,0-.28.01-.41.04-3.14.21-5.64,2.81-5.64,6s2.5,5.79,5.64,6c.13.03.27.04.41.04h15.74c10.44,0,18.94-8.5,18.94-18.94s-7.53-18.18-17.12-19.11Z"/></svg>